<svg height="512pt" viewBox="0 0 512 512.0002" width="512pt" xmlns="http://www.w3.org/2000/svg"><path d="m204.800781 292.863281v-198.996093c.027344-9.414063 7.652344-17.039063 17.066407-17.066407h76.800781c18.851562 0 34.132812-15.28125 34.132812-34.132812 0-18.851563-15.28125-34.132813-34.132812-34.132813h-256c-18.851563 0-34.132813 15.28125-34.132813 34.132813 0 18.851562 15.28125 34.132812 34.132813 34.132812h76.796875c9.414062.027344 17.039062 7.652344 17.070312 17.066407v375.464843c0 18.851563 15.28125 34.132813 34.132813 34.132813 18.851562 0 34.132812-15.28125 34.132812-34.132813zm0 0" fill="#e3e7f2"/><path d="m213.949219 298.488281c-20.46875-10.84375-37.613281-27.039062-49.605469-46.855469-1.523438-2.601562-4.316406-4.1875-7.332031-4.167968h-25.085938c-3.082031-.027344-5.9375 1.609375-7.472656 4.277344-1.535156 2.671874-1.515625 5.960937.058594 8.609374 15.023437 25.4375 24.160156 53.921876 26.734375 83.355469 5.035156 56.675781 24.429687 89.386719 62.761718 86.730469zm0 0" fill="#e3e7f2"/><path d="m503.464844 363.179688c.109375 40.292968-15.539063 79.03125-43.601563 107.945312l-25.515625-.085938-192.511718-.683593c-11.445313-11.851563-20.84375-25.519531-27.820313-40.445313h-.085937c-3.722657-7.804687-6.777344-15.914062-9.128907-24.234375-7.851562-27.757812-7.851562-57.148437 0-84.90625 2.394531-8.335937 5.445313-16.46875 9.128907-24.320312 7.117187-14.886719 16.566406-28.542969 27.992187-40.449219h218.535156c27.671875 28.8125 43.089844 67.230469 43.007813 107.179688zm0 0" fill="#a4c2f7"/><path d="m457.386719 222.632812-25.683594-.082031-186.371094-.511719c19.9375-33.097656 54.660157-54.496093 93.183594-57.429687 4.222656-.484375 8.46875-.714844 12.714844-.683594 43.359375-.894531 83.867187 21.507813 106.15625 58.707031zm0 0" fill="#a4c2f7"/><path d="m477.867188 363.179688c.101562 40.25-15.511719 78.949218-43.519532 107.859374l-192.511718-.683593c-11.445313-11.851563-20.84375-25.519531-27.820313-40.445313h-.085937c-3.722657-7.804687-6.777344-15.914062-9.128907-24.234375-7.851562-27.757812-7.851562-57.148437 0-84.90625 2.394531-8.335937 5.445313-16.46875 9.128907-24.320312 7.117187-14.886719 16.566406-28.542969 27.992187-40.449219h192.9375c27.667969 28.8125 43.085937 67.230469 43.007813 107.179688zm0 0" fill="#e3e7f2"/><path d="m431.703125 222.550781-186.371094-.511719c19.9375-33.097656 54.660157-54.496093 93.183594-57.429687 38.636719 3.011719 73.394531 24.621094 93.1875 57.941406zm0 0" fill="#e3e7f2"/><path d="m377.683594 137.386719c.023437 7.03125-2.753906 13.78125-7.714844 18.761719-4.964844 4.976562-11.707031 7.777343-18.738281 7.777343-4.480469.023438-8.894531-1.125-12.796875-3.328125-8.472656-4.628906-13.742188-13.515625-13.742188-23.167968 0-9.65625 5.269532-18.539063 13.742188-23.167969 3.902344-2.203125 8.316406-3.351563 12.796875-3.328125 14.613281 0 26.453125 11.84375 26.453125 26.453125zm0 0" fill="#a4c2f7"/><path d="m469.332031 238.933594c-.066406 9.394531-7.667969 16.996094-17.066406 17.066406h-204.800781c-9.410156-.027344-17.035156-7.652344-17.066406-17.066406.070312-9.398438 7.671874-16.996094 17.066406-17.066406h204.800781c9.414063.027343 17.039063 7.652343 17.066406 17.066406zm0 0" fill="#a4c2f7"/><path d="m469.332031 486.398438c-.066406 9.398437-7.667969 17-17.066406 17.066406h-204.800781c-9.410156-.027344-17.035156-7.652344-17.066406-17.066406.070312-9.394532 7.671874-16.996094 17.066406-17.066407h204.800781c9.414063.03125 17.039063 7.652344 17.066406 17.066407zm0 0" fill="#a4c2f7"/><g fill="#e3e7f2"><path d="m352.085938 137.386719c-.007813 9.640625-5.234376 18.519531-13.652344 23.210937-8.472656-4.628906-13.742188-13.515625-13.742188-23.167968 0-9.65625 5.269532-18.539063 13.742188-23.167969 8.429687 4.636719 13.664062 13.503906 13.652344 23.125zm0 0"/><path d="m443.734375 238.933594c-.070313 9.394531-7.671875 16.996094-17.066406 17.066406h-179.203125c-9.410156-.027344-17.035156-7.652344-17.066406-17.066406.070312-9.398438 7.671874-16.996094 17.066406-17.066406h179.203125c9.414062.027343 17.039062 7.652343 17.066406 17.066406zm0 0"/><path d="m443.734375 486.398438c-.070313 9.398437-7.671875 17-17.066406 17.066406h-179.203125c-9.410156-.027344-17.035156-7.652344-17.066406-17.066406.070312-9.394532 7.671874-16.996094 17.066406-17.066407h179.203125c9.414062.03125 17.039062 7.652344 17.066406 17.066407zm0 0"/></g><path d="m136.535156 247.464844h-4.609375c-3.082031-.027344-5.9375 1.609375-7.472656 4.277344-1.535156 2.671874-1.515625 5.960937.058594 8.609374 4.574219 7.683594 8.589843 15.679688 12.023437 23.9375v185.042969c-.011718 11.351563 5.632813 21.960938 15.050782 28.296875 9.417968 6.335938 21.371093 7.566406 31.878906 3.277344-4.242188-1.710938-8.109375-4.242188-11.371094-7.449219-6.367188-6.417969-9.945312-15.085937-9.960938-24.125v-185.042969c-3.433593-8.242187-7.449218-16.226562-12.023437-23.894531-1.59375-2.652343-1.625-5.957031-.085937-8.640625 1.539062-2.683594 4.410156-4.324218 7.503906-4.289062h4.605468v-153.597656c-.027343-9.414063-7.652343-17.039063-17.066406-17.066407h-25.601562c9.414062.027344 17.039062 7.652344 17.070312 17.066407zm0 0" fill="#fff"/><path d="m42.667969 76.800781h25.597656c-18.851563 0-34.132813-15.28125-34.132813-34.132812 0-18.851563 15.28125-34.132813 34.132813-34.132813h-25.597656c-18.851563 0-34.132813 15.28125-34.132813 34.132813 0 18.851562 15.28125 34.132812 34.132813 34.132812zm0 0" fill="#fff"/><path d="m145.066406 93.867188v151.378906h-17.066406v-151.378906zm0 0" fill="#fff"/><path d="m136.535156 170.667969c3.464844.019531 6.597656-2.058594 7.929688-5.261719 1.328125-3.203125.589844-6.890625-1.871094-9.332031l-1.28125-1.023438c-.476562-.324219-.992188-.582031-1.535156-.769531-.484375-.246094-1.003906-.417969-1.539063-.511719-.5625-.09375-1.132812-.152343-1.703125-.167969-2.261718.03125-4.425781.914063-6.058594 2.472657-.773437.816406-1.382812 1.773437-1.792968 2.816406-1.289063 3.183594-.585938 6.824219 1.792968 9.300781.8125.773438 1.769532 1.378906 2.8125 1.792969 1.027344.4375 2.128907.667969 3.246094.683594zm0 0" fill="#428dff"/><path d="m42.667969 85.332031h76.796875c4.714844 0 8.535156 3.820313 8.535156 8.535157v34.132812c0 4.710938 3.820312 8.535156 8.535156 8.535156 4.710938 0 8.53125-3.824218 8.53125-8.535156v-34.132812c0-14.140626-11.460937-25.601563-25.601562-25.601563h-76.796875c-14.140625 0-25.601563-11.460937-25.601563-25.597656 0-14.140625 11.460938-25.601563 25.601563-25.601563h256c14.136719 0 25.597656 11.460938 25.597656 25.601563 0 14.136719-11.460937 25.597656-25.597656 25.597656h-76.800781c-14.140626 0-25.601563 11.460937-25.601563 25.601563v182.195312c-10.796875-8.878906-19.753906-19.785156-26.359375-32.101562-1.378906-3.058594-4.417969-5.027344-7.773438-5.027344h-17.066406v-42.667969c0-4.710937-3.820312-8.53125-8.53125-8.53125-4.714844 0-8.535156 3.820313-8.535156 8.53125v42.667969h-12.210938c-3.296874 0-6.300781 1.902344-7.710937 4.882812-1.410156 2.984375-.976563 6.511719 1.113281 9.058594 7.601563 10.28125 13.90625 21.460938 18.773438 33.28125v183.175781c0 23.566407 19.105468 42.667969 42.667968 42.667969s42.667969-19.101562 42.667969-42.667969v-22.144531c4.574219 7.648438 9.800781 14.882812 15.625 21.625-7.085937 7.398438-9.0625 18.316406-5.019531 27.730469 4.042969 9.410156 13.316406 15.496093 23.558594 15.457031h204.800781c14.140625 0 25.601563-11.460938 25.601563-25.601562-.027344-5.878907-2.097657-11.5625-5.855469-16.082032 53.90625-61.148437 53.234375-153.042968-1.558594-213.394531 5.816406-5.867187 8.429687-14.195313 7.003906-22.332031-1.425781-8.140625-6.707031-15.085938-14.171875-18.628906-18.648437-30.222657-49.175781-51.175782-84.082031-57.710938 4.523437-5.988281 6.984375-13.28125 7.007813-20.785156 0-19.339844-15.679688-35.019532-35.015626-35.019532-19.339843 0-35.019531 15.679688-35.019531 35.019532.023438 7.511718 2.484375 14.8125 7.015625 20.804687-34.375 6.449219-64.53125 26.863281-83.292968 56.378907-8.859376 2.6875-15.550782 9.988281-17.457032 19.050781s1.28125 18.441406 8.308594 24.46875c-6.515625 7.335937-12.34375 15.25-17.417969 23.644531v-187.945312c0-4.714844 3.820313-8.535157 8.535157-8.535157h76.800781c23.5625 0 42.664062-19.101562 42.664062-42.664062 0-23.566407-19.101562-42.667969-42.664062-42.667969h-256c-23.566407 0-42.667969 19.101562-42.667969 42.667969 0 23.5625 19.101562 42.664062 42.667969 42.664062zm160.503906 216.628907c-2.542969 5.917968-4.734375 11.976562-6.574219 18.148437-8.179687 28.539063-8.292968 58.785156-.332031 87.382813v12.636718c-14.328125-5.035156-31.632813-22.089844-36.511719-77.175781-2.664062-30.703125-12.183594-60.417969-27.863281-86.953125h25.121094c11.433593 18.835938 27.273437 34.609375 46.160156 45.960938zm-32.503906 192.972656c-6.792969.011718-13.3125-2.679688-18.117188-7.484375-4.804687-4.804688-7.496093-11.320313-7.484375-18.117188v-106.75c8.269532 51.011719 29.636719 69.972657 51.199219 74.964844v31.785156c0 6.789063-2.695313 13.300781-7.496094 18.101563-4.800781 4.800781-11.3125 7.5-18.101562 7.5zm281.597656 0h-204.800781c-4.710938 0-8.53125-3.820313-8.53125-8.535156 0-4.710938 3.820312-8.53125 8.53125-8.53125h204.800781c4.714844 0 8.535156 3.820312 8.535156 8.53125 0 4.714843-3.820312 8.535156-8.535156 8.535156zm4.941406-33.636719c-1.628906-.324219-3.28125-.488281-4.941406-.496094h-204.800781c-.855469.039063-1.710938.125-2.558594.253907-9.417969-10.1875-17.242188-21.738282-23.203125-34.269532-.164063-.351562-.351563-.695312-.5625-1.023437-3.3125-6.992188-6.042969-14.242188-8.164063-21.683594-7.410156-25.894531-7.410156-53.34375 0-79.238281 2.246094-7.769532 5.128907-15.339844 8.617188-22.632813 6.703125-13.890625 15.601562-26.613281 26.351562-37.671875h204.320313c.691406 0 1.339844-.15625 2.015625-.207031l.058594.09375c52.996094 54.488281 54.253906 140.867187 2.867187 196.875zm-4.941406-230.898437c4.714844 0 8.535156 3.820312 8.535156 8.535156 0 4.710937-3.820312 8.53125-8.535156 8.53125h-204.800781c-4.710938 0-8.53125-3.820313-8.53125-8.53125 0-4.714844 3.820312-8.535156 8.53125-8.535156zm-101.078125-110.933594c9.898438 0 17.921875 8.023437 17.921875 17.921875 0 9.898437-8.023437 17.921875-17.921875 17.921875-9.894531 0-17.917969-8.023438-17.917969-17.921875.03125-9.882813 8.035157-17.886719 17.917969-17.921875zm0 52.992187c34.492188-.578125 67.398438 14.441407 89.558594 40.875h-179.0625c22.171875-26.414062 55.066406-41.429687 89.546875-40.875zm0 0" fill="#428dff"/><path d="m257.9375 284.722656c-19.5625 23.957032-30.246094 53.9375-30.25 84.863282 0 4.714843 3.820312 8.535156 8.53125 8.535156 4.714844 0 8.535156-3.820313 8.535156-8.535156-.128906-27.003907 9.203125-53.199219 26.375-74.042969 2.015625-2.347657 2.605469-5.601563 1.535156-8.507813-1.070312-2.902344-3.625-5-6.683593-5.480468-3.058594-.480469-6.136719.730468-8.042969 3.167968zm0 0" fill="#428dff"/></svg>